# xmcd
#
# Track frame offsets:
#	150
#	9975
#	28957
#	44457
#	62212
#	74260
#	84530
#	103265
#	118402
#	131572
#
# Disc length: 1971 seconds
#
# Revision: 0
# Processed by: cddbd v1.5.2PL0 Copyright (c) Steve Scherf et al.
# Submitted via: EasyCDDAExtractor 10.0.6.1
#
DISCID=9107b10a
DTITLE=Dan Kirkland - Heaven Will Be My Home
DYEAR=2000
DGENRE=Gospel
TTITLE0=I Feel Like Traveling On
TTITLE1=Old Ship Of Zion
TTITLE2=Ten Thousand Years
TTITLE3=One More River
TTITLE4=Oh, Come Angel Band
TTITLE5=Still Drinking Water From The Well
TTITLE6=There He Is
TTITLE7=Thank God I Am Free
TTITLE8=The Old Gospel Ship
TTITLE9=Heaven Will Be My Home
EXTD=
EXTT0=
EXTT1=
EXTT2=
EXTT3=
EXTT4=
EXTT5=
EXTT6=
EXTT7=
EXTT8=
EXTT9=
PLAYORDER=
